<svg version="1.2" xmlns="http://www.w3.org/2000/svg" viewBox="0 0 13 15" width="13" height="15">
	<title>New Project</title>
	<style>
		.s0 { fill: #000000 } 
	</style>
	<path id="Layer" fill-rule="evenodd" class="s0" d="m12.7 7.2c0 0.1-0.1 0.2-0.1 0.1-0.1 0-0.2-0.1-0.2-0.1 0.3-1.9-0.3-3.8-1.7-5.1-1.1-1.2-2.6-1.8-4.2-1.8-1.6 0-3.1 0.6-4.2 1.7-1.2 1.2-1.8 2.6-1.8 4.2 0 1.6 0.6 3.1 1.8 4.2l4.2 4.1 2.5-2.5c0.1 0 0.2 0 0.3 0 0 0.1 0 0.2 0 0.3l-2.8 2.7-4.5-4.4q-0.9-0.9-1.4-2.1-0.4-1.1-0.4-2.3 0-1.2 0.4-2.3 0.5-1.2 1.4-2.1 0.9-0.9 2.1-1.3 1.2-0.5 2.4-0.5 1.2 0 2.4 0.5 1.2 0.4 2.1 1.3c0.7 0.7 1.2 1.6 1.5 2.6 0.3 0.9 0.4 1.9 0.2 2.8zm-0.4 1.4q-0.5 1.2-1.3 2-0.1 0.1-0.2 0.1 0 0-0.1-0.1c0-0.1 0-0.2 0-0.2q0.9-0.8 1.3-1.9c0-0.1 0.1-0.1 0.2-0.1 0.1 0.1 0.2 0.2 0.1 0.2zm-6 0.6c-1.6 0-2.9-1.3-2.9-2.9 0-1.6 1.3-2.9 2.9-2.9 1.6 0 3 1.3 3 2.9 0 1.6-1.4 2.9-3 2.9zm2.6-2.9c0-1.4-1.1-2.6-2.6-2.6-1.4 0-2.6 1.2-2.6 2.6 0 1.4 1.2 2.6 2.6 2.6 1.5 0 2.6-1.2 2.6-2.6zm1.2 4.6q0.1-0.1 0.1-0.1 0.1 0 0.2 0.1 0 0 0 0.1 0 0.1 0 0.1-0.1 0-0.2 0 0 0-0.1 0 0 0 0-0.1 0-0.1 0-0.1z"/>
</svg>